<mxfile host="app.diagrams.net" modified="2023-01-27T01:29:00.604Z" agent="5.0 (Windows NT 10.0; Win64; x64) AppleWebKit/537.36 (KHTML, like Gecko) Chrome/109.0.0.0 Safari/537.36 Edg/109.0.1518.55" etag="Z3CIfCTH8EYprHkNd41l" version="20.8.11" type="github">
  <diagram name="Page-1" id="MyXwGwm1nqH-So8XLyJG">
    <mxGraphModel dx="1411" dy="828" grid="1" gridSize="10" guides="1" tooltips="1" connect="1" arrows="1" fold="1" page="1" pageScale="1" pageWidth="850" pageHeight="1100" math="0" shadow="0">
      <root>
        <mxCell id="0" />
        <mxCell id="1" parent="0" />
        <mxCell id="Oglcahsu3CRgRb8vvTDw-2" value="&lt;h1&gt;Day 2 Jean Claude Van Damme&lt;/h1&gt;&lt;p&gt;Killnet Style Actor&lt;/p&gt;" style="text;html=1;strokeColor=none;fillColor=none;spacing=5;spacingTop=-20;whiteSpace=wrap;overflow=hidden;rounded=0;" vertex="1" parent="1">
          <mxGeometry x="90" y="70" width="490" height="120" as="geometry" />
        </mxCell>
        <mxCell id="Oglcahsu3CRgRb8vvTDw-3" value="" style="endArrow=none;dashed=1;html=1;rounded=0;fillColor=#dae8fc;strokeColor=#6c8ebf;strokeWidth=4;" edge="1" parent="1">
          <mxGeometry width="50" height="50" relative="1" as="geometry">
            <mxPoint x="40" y="440" as="sourcePoint" />
            <mxPoint x="800" y="440" as="targetPoint" />
          </mxGeometry>
        </mxCell>
        <mxCell id="Oglcahsu3CRgRb8vvTDw-4" value="" style="endArrow=none;dashed=1;html=1;rounded=0;fillColor=#f8cecc;strokeColor=#b85450;strokeWidth=4;" edge="1" parent="1">
          <mxGeometry width="50" height="50" relative="1" as="geometry">
            <mxPoint x="40" y="240" as="sourcePoint" />
            <mxPoint x="800" y="240" as="targetPoint" />
          </mxGeometry>
        </mxCell>
        <mxCell id="Oglcahsu3CRgRb8vvTDw-5" value="" style="verticalLabelPosition=bottom;html=1;verticalAlign=top;align=center;strokeColor=#b85450;fillColor=#f8cecc;shape=mxgraph.azure.computer;pointerEvents=1;" vertex="1" parent="1">
          <mxGeometry x="610" y="160" width="50" height="45" as="geometry" />
        </mxCell>
        <mxCell id="Oglcahsu3CRgRb8vvTDw-6" value="" style="endArrow=none;dashed=1;html=1;rounded=0;strokeWidth=4;" edge="1" parent="1">
          <mxGeometry width="50" height="50" relative="1" as="geometry">
            <mxPoint x="40" y="540" as="sourcePoint" />
            <mxPoint x="470" y="540" as="targetPoint" />
          </mxGeometry>
        </mxCell>
        <mxCell id="Oglcahsu3CRgRb8vvTDw-7" value="&lt;font style=&quot;font-size: 15px;&quot;&gt;&lt;b&gt;DMZ&lt;/b&gt;&lt;/font&gt;" style="text;html=1;strokeColor=none;fillColor=none;align=center;verticalAlign=middle;whiteSpace=wrap;rounded=0;" vertex="1" parent="1">
          <mxGeometry x="20" y="470" width="60" height="30" as="geometry" />
        </mxCell>
        <mxCell id="Oglcahsu3CRgRb8vvTDw-8" value="Confluence/Apache DOS" style="verticalLabelPosition=bottom;html=1;verticalAlign=top;align=center;strokeColor=#6c8ebf;fillColor=#dae8fc;shape=mxgraph.azure.computer;pointerEvents=1;" vertex="1" parent="1">
          <mxGeometry x="135" y="455" width="55" height="45" as="geometry" />
        </mxCell>
        <mxCell id="Oglcahsu3CRgRb8vvTDw-9" value="" style="endArrow=none;dashed=1;html=1;rounded=0;strokeWidth=4;fontSize=15;" edge="1" parent="1">
          <mxGeometry width="50" height="50" relative="1" as="geometry">
            <mxPoint x="470" y="720" as="sourcePoint" />
            <mxPoint x="470" y="440" as="targetPoint" />
          </mxGeometry>
        </mxCell>
        <mxCell id="Oglcahsu3CRgRb8vvTDw-10" value="&lt;b&gt;Enterprise&lt;/b&gt;" style="text;html=1;strokeColor=none;fillColor=none;align=center;verticalAlign=middle;whiteSpace=wrap;rounded=0;fontSize=15;" vertex="1" parent="1">
          <mxGeometry x="185" y="410" width="60" height="30" as="geometry" />
        </mxCell>
        <mxCell id="Oglcahsu3CRgRb8vvTDw-11" value="&lt;b&gt;Dispatch&lt;br&gt;&lt;/b&gt;" style="text;html=1;strokeColor=none;fillColor=none;align=center;verticalAlign=middle;whiteSpace=wrap;rounded=0;fontSize=15;" vertex="1" parent="1">
          <mxGeometry x="605" y="410" width="60" height="30" as="geometry" />
        </mxCell>
        <mxCell id="Oglcahsu3CRgRb8vvTDw-12" value="SCAN EXTERNAL Subnet" style="endArrow=classic;html=1;rounded=0;strokeWidth=4;fontSize=15;" edge="1" parent="1" target="Oglcahsu3CRgRb8vvTDw-16">
          <mxGeometry x="-0.0061" width="50" height="50" relative="1" as="geometry">
            <mxPoint x="600" y="220" as="sourcePoint" />
            <mxPoint x="400" y="330" as="targetPoint" />
            <mxPoint as="offset" />
          </mxGeometry>
        </mxCell>
        <mxCell id="Oglcahsu3CRgRb8vvTDw-14" value="MAIN WEBSITE &lt;br&gt;DEFACEMENT" style="verticalLabelPosition=bottom;html=1;verticalAlign=top;align=center;strokeColor=#6c8ebf;fillColor=#dae8fc;shape=mxgraph.azure.computer;pointerEvents=1;" vertex="1" parent="1">
          <mxGeometry x="350" y="455" width="50" height="45" as="geometry" />
        </mxCell>
        <mxCell id="Oglcahsu3CRgRb8vvTDw-15" value="Vuln SCAN" style="endArrow=classic;html=1;rounded=0;strokeWidth=4;fontSize=15;" edge="1" parent="1" source="Oglcahsu3CRgRb8vvTDw-16">
          <mxGeometry x="-0.0061" width="50" height="50" relative="1" as="geometry">
            <mxPoint x="270" y="310" as="sourcePoint" />
            <mxPoint x="150" y="430" as="targetPoint" />
            <mxPoint as="offset" />
          </mxGeometry>
        </mxCell>
        <mxCell id="Oglcahsu3CRgRb8vvTDw-16" value="" style="points=[];aspect=fixed;html=1;align=center;shadow=0;dashed=0;image;image=img/lib/allied_telesis/computer_and_terminals/Personal_Computer_with_Server.svg;fontSize=15;" vertex="1" parent="1">
          <mxGeometry x="150" y="260" width="62.400000000000006" height="62.400000000000006" as="geometry" />
        </mxCell>
        <mxCell id="Oglcahsu3CRgRb8vvTDw-17" value="VULN SCAN" style="endArrow=classic;html=1;rounded=0;strokeWidth=4;fontSize=15;entryX=0.5;entryY=0;entryDx=0;entryDy=0;entryPerimeter=0;" edge="1" parent="1" source="Oglcahsu3CRgRb8vvTDw-16" target="Oglcahsu3CRgRb8vvTDw-14">
          <mxGeometry width="50" height="50" relative="1" as="geometry">
            <mxPoint x="310" y="370" as="sourcePoint" />
            <mxPoint x="350" y="430" as="targetPoint" />
          </mxGeometry>
        </mxCell>
        <mxCell id="Oglcahsu3CRgRb8vvTDw-18" value="" style="points=[];aspect=fixed;html=1;align=center;shadow=0;dashed=0;image;image=img/lib/allied_telesis/computer_and_terminals/Personal_Computer_with_Server.svg;fontSize=15;direction=south;" vertex="1" parent="1">
          <mxGeometry x="530" y="280" width="62.400000000000006" height="62.400000000000006" as="geometry" />
        </mxCell>
        <mxCell id="Oglcahsu3CRgRb8vvTDw-19" value="" style="endArrow=classic;html=1;rounded=0;strokeWidth=4;fontSize=15;exitX=0.65;exitY=1.105;exitDx=0;exitDy=0;exitPerimeter=0;" edge="1" parent="1" source="Oglcahsu3CRgRb8vvTDw-5" target="Oglcahsu3CRgRb8vvTDw-18">
          <mxGeometry width="50" height="50" relative="1" as="geometry">
            <mxPoint x="310" y="370" as="sourcePoint" />
            <mxPoint x="460" y="300" as="targetPoint" />
          </mxGeometry>
        </mxCell>
        <mxCell id="Oglcahsu3CRgRb8vvTDw-20" value="EXPLOIT-DOS" style="endArrow=classic;html=1;rounded=0;strokeWidth=4;fontSize=15;" edge="1" parent="1" source="Oglcahsu3CRgRb8vvTDw-18">
          <mxGeometry x="-0.0013" width="50" height="50" relative="1" as="geometry">
            <mxPoint x="605" y="319.725" as="sourcePoint" />
            <mxPoint x="200" y="470" as="targetPoint" />
            <mxPoint as="offset" />
          </mxGeometry>
        </mxCell>
        <mxCell id="Oglcahsu3CRgRb8vvTDw-21" value="SCAN EXTERNAL Subnet" style="endArrow=classic;html=1;rounded=0;strokeWidth=4;fontSize=15;" edge="1" parent="1">
          <mxGeometry x="-0.0061" width="50" height="50" relative="1" as="geometry">
            <mxPoint x="220" y="300" as="sourcePoint" />
            <mxPoint x="610" y="400" as="targetPoint" />
            <mxPoint as="offset" />
          </mxGeometry>
        </mxCell>
        <mxCell id="Oglcahsu3CRgRb8vvTDw-22" value="" style="html=1;outlineConnect=0;fillColor=#f8cecc;strokeColor=#b85450;gradientDirection=north;strokeWidth=2;shape=mxgraph.networks.comm_link_edge;html=1;rounded=0;fontSize=15;entryX=0.98;entryY=0.02;entryDx=0;entryDy=0;entryPerimeter=0;" edge="1" parent="1" target="Oglcahsu3CRgRb8vvTDw-8">
          <mxGeometry width="100" height="100" relative="1" as="geometry">
            <mxPoint x="120" y="520" as="sourcePoint" />
            <mxPoint x="220" y="420" as="targetPoint" />
            <Array as="points" />
          </mxGeometry>
        </mxCell>
        <mxCell id="Oglcahsu3CRgRb8vvTDw-23" value="SSH BRUTE" style="endArrow=classic;html=1;rounded=0;strokeWidth=4;fontSize=15;exitX=1.026;exitY=0.344;exitDx=0;exitDy=0;exitPerimeter=0;entryX=1;entryY=0.5;entryDx=0;entryDy=0;entryPerimeter=0;" edge="1" parent="1" source="Oglcahsu3CRgRb8vvTDw-18" target="Oglcahsu3CRgRb8vvTDw-14">
          <mxGeometry width="50" height="50" relative="1" as="geometry">
            <mxPoint x="270" y="470" as="sourcePoint" />
            <mxPoint x="320" y="420" as="targetPoint" />
          </mxGeometry>
        </mxCell>
      </root>
    </mxGraphModel>
  </diagram>
</mxfile>
